{
  "accessors": [
    {
      "bufferView": 1,
      "componentType": 5126,
      "count": 1927,
      "max": [
        19.482044219970703,
        0.74718499183654785,
        38.677577972412109
      ],
      "min": [
        -19.517955780029297,
        -12.530331611633301,
        28.789754867553711
      ],
      "type": "VEC3"
    },
    {
      "bufferView": 1,
      "byteOffset": 23124,
      "componentType": 5126,
      "count": 1927,
      "max": [
        1,
        1,
        1
      ],
      "min": [
        -1,
        -1,
        -1
      ],
      "type": "VEC3"
    },
    {
      "bufferView": 0,
      "componentType": 5125,
      "count": 3351,
      "max": [
        1926
      ],
      "min": [
        0
      ],
      "type": "SCALAR"
    },
    {
      "bufferView": 1,
      "byteOffset": 46248,
      "componentType": 5126,
      "count": 2347,
      "max": [
        15.7557373046875,
        11.533736228942871,
        41.166824340820312
      ],
      "min": [
        -15.244274139404297,
        -14.862764358520508,
        -8.6923904418945312
      ],
      "type": "VEC3"
    },
    {
      "bufferView": 1,
      "byteOffset": 74412,
      "componentType": 5126,
      "count": 2347,
      "max": [
        1,
        1,
        1
      ],
      "min": [
        -1,
        -1,
        -1
      ],
      "type": "VEC3"
    },
    {
      "bufferView": 0,
      "byteOffset": 13404,
      "componentType": 5125,
      "count": 3906,
      "max": [
        2346
      ],
      "min": [
        0
      ],
      "type": "SCALAR"
    },
    {
      "bufferView": 1,
      "byteOffset": 102576,
      "componentType": 5126,
      "count": 6,
      "max": [
        19.482044219970703,
        24.711837768554688,
        44.359283447265625
      ],
      "min": [
        -19.517955780029297,
        -10.288163185119629,
        38.757659912109375
      ],
      "type": "VEC3"
    },
    {
      "bufferView": 0,
      "byteOffset": 29028,
      "componentType": 5125,
      "count": 6,
      "max": [
        5
      ],
      "min": [
        0
      ],
      "type": "SCALAR"
    },
    {
      "bufferView": 1,
      "byteOffset": 102648,
      "componentType": 5126,
      "count": 2146,
      "max": [
        19.482044219970703,
        24.711837768554688,
        59.359279632568359
      ],
      "min": [
        -19.517955780029297,
        -10.288163185119629,
        -11.646484375
      ],
      "type": "VEC3"
    },
    {
      "bufferView": 1,
      "byteOffset": 128400,
      "componentType": 5126,
      "count": 2146,
      "max": [
        1,
        1,
        1
      ],
      "min": [
        -1,
        -1,
        -1
      ],
      "type": "VEC3"
    },
    {
      "bufferView": 0,
      "byteOffset": 29052,
      "componentType": 5125,
      "count": 3984,
      "max": [
        2145
      ],
      "min": [
        0
      ],
      "type": "SCALAR"
    }
  ],
  "asset": {
    "extras": {
      "author": "rapanapa (https://sketchfab.com/rapanapa)",
      "license": "CC-BY-4.0 (http://creativecommons.org/licenses/by/4.0/)",
      "source": "https://sketchfab.com/3d-models/raspicam-1a8b005e378b4425ac7b25623d6fa1ca",
      "title": "Raspicam"
    },
    "generator": "Sketchfab-6.6.0",
    "version": "2.0"
  },
  "bufferViews": [
    {
      "buffer": 0,
      "byteLength": 44988,
      "byteOffset": 0,
      "name": "floatBufferViews",
      "target": 34963
    },
    {
      "buffer": 0,
      "byteLength": 154152,
      "byteOffset": 44988,
      "byteStride": 12,
      "name": "floatBufferViews",
      "target": 34962
    }
  ],
  "buffers": [
    {
      "byteLength": 199140,
      "uri": "scene.bin"
    }
  ],
  "materials": [
    {
      "doubleSided": true,
      "emissiveFactor": [
        0,
        0,
        0
      ],
      "name": "Material.008",
      "pbrMetallicRoughness": {
        "baseColorFactor": [
          0.64000000000000001,
          0.027619000000000001,
          0.037307,
          1
        ],
        "metallicFactor": 0,
        "roughnessFactor": 0.84349154199267129
      }
    },
    {
      "doubleSided": true,
      "emissiveFactor": [
        0,
        0,
        0
      ],
      "name": "Material.011",
      "pbrMetallicRoughness": {
        "baseColorFactor": [
          0.23740900000000001,
          0.24391599999999999,
          0.64000000000000001,
          1
        ],
        "metallicFactor": 0,
        "roughnessFactor": 0.84349154199267129
      }
    },
    {
      "doubleSided": true,
      "emissiveFactor": [
        0,
        0,
        0
      ],
      "name": "None",
      "pbrMetallicRoughness": {
        "baseColorFactor": [
          0.80000000000000004,
          0.80000000000000004,
          0.80000000000000004,
          1
        ],
        "metallicFactor": 0,
        "roughnessFactor": 1
      }
    }
  ],
  "meshes": [
    {
      "primitives": [
        {
          "attributes": {
            "NORMAL": 1,
            "POSITION": 0
          },
          "indices": 2,
          "material": 0,
          "mode": 4
        }
      ]
    },
    {
      "primitives": [
        {
          "attributes": {
            "NORMAL": 4,
            "POSITION": 3
          },
          "indices": 5,
          "material": 1,
          "mode": 4
        }
      ]
    },
    {
      "primitives": [
        {
          "attributes": {
            "POSITION": 6
          },
          "indices": 7,
          "material": 2,
          "mode": 1
        }
      ]
    },
    {
      "primitives": [
        {
          "attributes": {
            "NORMAL": 9,
            "POSITION": 8
          },
          "indices": 10,
          "material": 2,
          "mode": 4
        }
      ]
    }
  ],
  "nodes": [
    {
      "children": [
        1
      ],
      "name": "RootNode (gltf orientation matrix)",
      "rotation": [
        -0.70710678118654746,
        -0,
        -0,
        0.70710678118654757
      ]
    },
    {
      "children": [
        2
      ],
      "name": "RootNode (model correction matrix)"
    },
    {
      "children": [
        3,
        4,
        5,
        6
      ],
      "name": "raspicam_v5.obj.cleaner.materialmerger.gles"
    },
    {
      "mesh": 0,
      "name": ""
    },
    {
      "mesh": 1,
      "name": ""
    },
    {
      "mesh": 2,
      "name": ""
    },
    {
      "mesh": 3,
      "name": ""
    }
  ],
  "scene": 0,
  "scenes": [
    {
      "name": "OSG_Scene",
      "nodes": [
        0
      ]
    }
  ]
}

