{
  "accessors": [
    {
      "bufferView": 3,
      "componentType": 5126,
      "count": 24,
      "max": [
        76.754158020019531,
        15.671293258666992,
        17.110805511474609
      ],
      "min": [
        45.445171356201172,
        -23.225194931030273,
        -3.5175073146820068
      ],
      "type": "VEC3"
    },
    {
      "bufferView": 3,
      "byteOffset": 288,
      "componentType": 5126,
      "count": 24,
      "max": [
        0.8850024938583374,
        0.46523895859718323,
        0.86181998252868652
      ],
      "min": [
        -0.88500237464904785,
        -0.46523880958557129,
        -0.8618198037147522
      ],
      "type": "VEC3"
    },
    {
      "bufferView": 4,
      "componentType": 5126,
      "count": 24,
      "max": [
        0.79884940385818481,
        0.48360848426818848,
        0.98475748300552368,
        1
      ],
      "min": [
        -0.79884940385818481,
        -0.48360893130302429,
        -0.98475754261016846,
        1
      ],
      "type": "VEC4"
    },
    {
      "bufferView": 4,
      "byteOffset": 384,
      "componentType": 5126,
      "count": 24,
      "max": [
        1,
        1,
        1,
        1
      ],
      "min": [
        1,
        1,
        1,
        1
      ],
      "type": "VEC4"
    },
    {
      "bufferView": 2,
      "componentType": 5126,
      "count": 24,
      "max": [
        0.96453040838241577,
        0.99646210670471191
      ],
      "min": [
        0.080738641321659088,
        0.014830291271209717
      ],
      "type": "VEC2"
    },
    {
      "bufferView": 1,
      "componentType": 5125,
      "count": 36,
      "max": [
        23
      ],
      "min": [
        0
      ],
      "type": "SCALAR"
    },
    {
      "bufferView": 3,
      "byteOffset": 576,
      "componentType": 5126,
      "count": 220,
      "max": [
        77.826904296875,
        18.406942367553711,
        19.252397537231445
      ],
      "min": [
        42.984867095947266,
        -25.716899871826172,
        -3.9200334548950195
      ],
      "type": "VEC3"
    },
    {
      "bufferView": 3,
      "byteOffset": 3216,
      "componentType": 5126,
      "count": 220,
      "max": [
        0.99951863288879395,
        0.9690476655960083,
        0.87316536903381348
      ],
      "min": [
        -0.998210608959198,
        -0.97774124145507812,
        -0.96939361095428467
      ],
      "type": "VEC3"
    },
    {
      "bufferView": 4,
      "byteOffset": 768,
      "componentType": 5126,
      "count": 220,
      "max": [
        0.9758676290512085,
        0.98932075500488281,
        0.99002784490585327,
        1
      ],
      "min": [
        -0.98788249492645264,
        -0.99347370862960815,
        -0.99348330497741699,
        -1
      ],
      "type": "VEC4"
    },
    {
      "bufferView": 4,
      "byteOffset": 4288,
      "componentType": 5126,
      "count": 220,
      "max": [
        1,
        1,
        1,
        1
      ],
      "min": [
        1,
        1,
        1,
        1
      ],
      "type": "VEC4"
    },
    {
      "bufferView": 2,
      "byteOffset": 192,
      "componentType": 5126,
      "count": 220,
      "max": [
        0.81526398658752441,
        0.99806922674179077
      ],
      "min": [
        -0.90767812728881836,
        0.17671412229537964
      ],
      "type": "VEC2"
    },
    {
      "bufferView": 1,
      "byteOffset": 144,
      "componentType": 5125,
      "count": 336,
      "max": [
        219
      ],
      "min": [
        0
      ],
      "type": "SCALAR"
    },
    {
      "bufferView": 3,
      "byteOffset": 5856,
      "componentType": 5126,
      "count": 32,
      "max": [
        61.465625762939453,
        -13.262631416320801,
        17.081005096435547
      ],
      "min": [
        45.185535430908203,
        -25.217971801757812,
        2.7202310562133789
      ],
      "type": "VEC3"
    },
    {
      "bufferView": 3,
      "byteOffset": 6240,
      "componentType": 5126,
      "count": 32,
      "max": [
        0.92871743440628052,
        0.93491417169570923,
        0.8147539496421814
      ],
      "min": [
        -0.96447229385375977,
        -0.9751160740852356,
        -0.80373775959014893
      ],
      "type": "VEC3"
    },
    {
      "bufferView": 4,
      "byteOffset": 7808,
      "componentType": 5126,
      "count": 32,
      "max": [
        0.86925411224365234,
        0.77170336246490479,
        0.97564840316772461,
        1
      ],
      "min": [
        -0.93170994520187378,
        -0.87516999244689941,
        -0.95368778705596924,
        1
      ],
      "type": "VEC4"
    },
    {
      "bufferView": 4,
      "byteOffset": 8320,
      "componentType": 5126,
      "count": 32,
      "max": [
        1,
        1,
        1,
        1
      ],
      "min": [
        1,
        1,
        1,
        1
      ],
      "type": "VEC4"
    },
    {
      "bufferView": 2,
      "byteOffset": 1952,
      "componentType": 5126,
      "count": 32,
      "max": [
        1.1062202453613281,
        1.8674938678741455
      ],
      "min": [
        -0.1062203049659729,
        -0.86749386787414551
      ],
      "type": "VEC2"
    },
    {
      "bufferView": 1,
      "byteOffset": 1488,
      "componentType": 5125,
      "count": 60,
      "max": [
        31
      ],
      "min": [
        0
      ],
      "type": "SCALAR"
    },
    {
      "bufferView": 5,
      "componentType": 5126,
      "count": 9,
      "max": [
        1,
        0.79884934425354004,
        0.46105116605758667,
        0,
        0.37239611148834229,
        1,
        0.8703465461730957,
        0,
        0.84383022785186768,
        0.50795882940292358,
        1,
        0,
        19.526634216308594,
        0,
        0,
        1
      ],
      "min": [
        -0.38635793328285217,
        0,
        0,
        0,
        0,
        -0.32220873236656189,
        0,
        0,
        0,
        0,
        -0.17300073802471161,
        0,
        0,
        -53.467624664306641,
        -23.706996917724609,
        1
      ],
      "type": "MAT4"
    },
    {
      "bufferView": 0,
      "componentType": 5123,
      "count": 24,
      "max": [
        6,
        6,
        6,
        6
      ],
      "min": [
        6,
        6,
        6,
        6
      ],
      "type": "VEC4"
    },
    {
      "bufferView": 4,
      "byteOffset": 8832,
      "componentType": 5126,
      "count": 24,
      "max": [
        1,
        0,
        0,
        0
      ],
      "min": [
        1,
        0,
        0,
        0
      ],
      "type": "VEC4"
    },
    {
      "bufferView": 0,
      "byteOffset": 192,
      "componentType": 5123,
      "count": 220,
      "max": [
        6,
        6,
        6,
        6
      ],
      "min": [
        6,
        6,
        6,
        6
      ],
      "type": "VEC4"
    },
    {
      "bufferView": 4,
      "byteOffset": 9216,
      "componentType": 5126,
      "count": 220,
      "max": [
        1,
        0,
        0,
        0
      ],
      "min": [
        1,
        0,
        0,
        0
      ],
      "type": "VEC4"
    },
    {
      "bufferView": 0,
      "byteOffset": 1952,
      "componentType": 5123,
      "count": 32,
      "max": [
        8,
        8,
        8,
        8
      ],
      "min": [
        7,
        8,
        8,
        8
      ],
      "type": "VEC4"
    },
    {
      "bufferView": 4,
      "byteOffset": 12736,
      "componentType": 5126,
      "count": 32,
      "max": [
        1,
        0,
        0,
        0
      ],
      "min": [
        1,
        0,
        0,
        0
      ],
      "type": "VEC4"
    }
  ],
  "asset": {
    "extras": {
      "author": "Not Important (https://sketchfab.com/russianworkspace)",
      "license": "CC-BY-4.0 (http://creativecommons.org/licenses/by/4.0/)",
      "source": "https://sketchfab.com/3d-models/tribes-vengeance-fuel-cell-8c64253fb9af46be9c537af84e4f06d0",
      "title": "Tribes Vengeance Fuel Cell"
    },
    "generator": "Sketchfab-5.13.0",
    "version": "2.0"
  },
  "bufferViews": [
    {
      "buffer": 0,
      "byteLength": 2208,
      "byteOffset": 0,
      "byteStride": 8,
      "name": "shortBufferViews",
      "target": 34962
    },
    {
      "buffer": 0,
      "byteLength": 1728,
      "byteOffset": 2208,
      "name": "floatBufferViews",
      "target": 34963
    },
    {
      "buffer": 0,
      "byteLength": 2208,
      "byteOffset": 3936,
      "byteStride": 8,
      "name": "floatBufferViews",
      "target": 34962
    },
    {
      "buffer": 0,
      "byteLength": 6624,
      "byteOffset": 6144,
      "byteStride": 12,
      "name": "floatBufferViews",
      "target": 34962
    },
    {
      "buffer": 0,
      "byteLength": 13248,
      "byteOffset": 12768,
      "byteStride": 16,
      "name": "floatBufferViews",
      "target": 34962
    },
    {
      "buffer": 0,
      "byteLength": 576,
      "byteOffset": 26016,
      "byteStride": 64,
      "name": "floatBufferViews"
    }
  ],
  "buffers": [
    {
      "byteLength": 26592,
      "uri": "scene.bin"
    }
  ],
  "images": [
    {
      "uri": "textures/GlassShader_baseColor.png"
    },
    {
      "uri": "textures/BlasterShader_baseColor.png"
    },
    {
      "uri": "textures/BlasterShader_normal.png"
    }
  ],
  "materials": [
    {
      "alphaMode": "BLEND",
      "doubleSided": true,
      "name": "GlassShader",
      "pbrMetallicRoughness": {
        "baseColorFactor": [
          1,
          1,
          1,
          0.25
        ],
        "baseColorTexture": {
          "index": 0,
          "texCoord": 0
        },
        "metallicFactor": 0,
        "roughnessFactor": 0.1070286404
      }
    },
    {
      "doubleSided": true,
      "name": "BlasterShader",
      "normalTexture": {
        "index": 2,
        "scale": 1,
        "texCoord": 0
      },
      "pbrMetallicRoughness": {
        "baseColorFactor": [
          1,
          1,
          1,
          1
        ],
        "baseColorTexture": {
          "index": 1,
          "texCoord": 0
        },
        "metallicFactor": 0,
        "roughnessFactor": 0.89297135959999996
      }
    },
    {
      "doubleSided": true,
      "emissiveFactor": [
        0,
        0.99334156650000005,
        0.0018104683999999999
      ],
      "name": "fuelShader",
      "pbrMetallicRoughness": {
        "baseColorFactor": [
          0.0022698041999999999,
          1,
          0,
          1
        ],
        "metallicFactor": 0,
        "roughnessFactor": 0.89297135959999996
      }
    }
  ],
  "meshes": [
    {
      "name": "FuelCell_GlassShader_0",
      "primitives": [
        {
          "attributes": {
            "COLOR_0": 3,
            "JOINTS_0": 19,
            "NORMAL": 1,
            "POSITION": 0,
            "TANGENT": 2,
            "TEXCOORD_0": 4,
            "TEXCOORD_1": 4,
            "TEXCOORD_2": 4,
            "WEIGHTS_0": 20
          },
          "indices": 5,
          "material": 0,
          "mode": 4
        }
      ]
    },
    {
      "name": "FuelCell_BlasterShader_0",
      "primitives": [
        {
          "attributes": {
            "COLOR_0": 9,
            "JOINTS_0": 21,
            "NORMAL": 7,
            "POSITION": 6,
            "TANGENT": 8,
            "TEXCOORD_0": 10,
            "TEXCOORD_1": 10,
            "TEXCOORD_2": 10,
            "WEIGHTS_0": 22
          },
          "indices": 11,
          "material": 1,
          "mode": 4
        }
      ]
    },
    {
      "name": "FuelCell_fuelShader_0",
      "primitives": [
        {
          "attributes": {
            "COLOR_0": 15,
            "JOINTS_0": 23,
            "NORMAL": 13,
            "POSITION": 12,
            "TANGENT": 14,
            "TEXCOORD_0": 16,
            "WEIGHTS_0": 24
          },
          "indices": 17,
          "material": 2,
          "mode": 4
        }
      ]
    }
  ],
  "nodes": [
    {
      "children": [
        1
      ],
      "name": "RootNode (gltf orientation matrix)",
      "rotation": [
        -0.70710678118654746,
        -0,
        -0,
        0.70710678118654757
      ]
    },
    {
      "children": [
        2
      ],
      "matrix": [
        0.88563650846481323,
        -0.084231123328208923,
        -0.456676185131073,
        0,
        0.0016699322732165456,
        0.98398357629776001,
        -0.17825122177600861,
        0,
        0.46437615156173706,
        0.15710316598415375,
        0.87159246206283569,
        0,
        -5.2237973213195801,
        -4.3910813331604004,
        -26.688756942749023,
        1
      ],
      "name": "RootNode (model correction matrix)"
    },
    {
      "children": [
        3
      ],
      "matrix": [
        1,
        0,
        0,
        0,
        0,
        0,
        1,
        0,
        0,
        -1,
        0,
        0,
        0,
        0,
        0,
        1
      ],
      "name": "4baa91bcb3a94f219faa3692d5956753.fbx"
    },
    {
      "children": [
        4
      ],
      "name": "RootNode"
    },
    {
      "children": [
        5,
        7,
        8,
        9,
        6
      ],
      "name": ""
    },
    {
      "children": [
        10
      ],
      "name": "_rootJoint"
    },
    {
      "matrix": [
        1,
        1.1102230246251565e-16,
        4.163336342344337e-17,
        0,
        4.163336342344337e-17,
        6.1232339957367673e-17,
        -1.0000000000000002,
        0,
        -1.1102230246251568e-16,
        1.0000000000000002,
        6.1232339957367673e-17,
        0,
        -1.4210854715202004e-14,
        -3.5527136788005009e-15,
        0,
        1
      ],
      "name": ""
    },
    {
      "mesh": 0,
      "name": "",
      "skin": 0
    },
    {
      "mesh": 1,
      "name": "",
      "skin": 0
    },
    {
      "mesh": 2,
      "name": "",
      "skin": 0
    },
    {
      "children": [
        11
      ],
      "name": "Root_00",
      "rotation": [
        -8.1249567074337392e-07,
        -9.1814530378542258e-07,
        0.7568783164024353,
        0.65355581045150757
      ],
      "scale": [
        1.0000001192092896,
        0.99999994039535522,
        1
      ],
      "translation": [
        -22.332763671875,
        16.094207763671875,
        21.51136589050293
      ]
    },
    {
      "children": [
        12
      ],
      "name": "Bip01 R Clavicle01_01",
      "rotation": [
        -0.60967522859573364,
        0.18404088914394379,
        0.76886039972305298,
        -0.057262413203716278
      ],
      "scale": [
        1.0000003576278687,
        1.0000003576278687,
        1.0000001192092896
      ],
      "translation": [
        -0.10149383544921875,
        -1.6852779388427734,
        -4.1910839080810547
      ]
    },
    {
      "children": [
        13
      ],
      "name": "Bip01 R UpperArm01_02",
      "rotation": [
        0.1376679539680481,
        -0.48731270432472229,
        -0.24807795882225037,
        0.82585179805755615
      ],
      "scale": [
        0.99999946355819702,
        0.99999958276748657,
        0.99999964237213135
      ],
      "translation": [
        13.673851013183594,
        -5.7220458984375e-06,
        -4.76837158203125e-06
      ]
    },
    {
      "children": [
        14
      ],
      "name": "Bip01 R ForeArm01_03",
      "rotation": [
        -6.0841408355827298e-08,
        -1.0785763748799582e-07,
        -0.59254950284957886,
        0.80553406476974487
      ],
      "scale": [
        1.0000002384185791,
        1,
        1
      ],
      "translation": [
        26.932432174682617,
        7.62939453125e-06,
        -4.76837158203125e-07
      ]
    },
    {
      "children": [
        15
      ],
      "name": "Bip01 R Hand01_04",
      "rotation": [
        0.67763990163803101,
        0.19413860142230988,
        -0.012965570203959942,
        0.70918703079223633
      ],
      "scale": [
        0.99999988079071045,
        1.0000004768371582,
        1.0000002384185791
      ],
      "translation": [
        23.752174377441406,
        9.5367431640625e-07,
        -3.337860107421875e-06
      ]
    },
    {
      "children": [
        16
      ],
      "name": "FuelCellCarriedFull_05",
      "rotation": [
        -0.17218354344367981,
        0.0931195467710495,
        -0.61851638555526733,
        0.76099872589111328
      ],
      "scale": [
        0.99999964237213135,
        0.99999988079071045,
        1
      ],
      "translation": [
        8.0220565795898438,
        1.8120174407958984,
        1.9469479322433472
      ]
    },
    {
      "children": [
        17
      ],
      "name": "Box03_06",
      "rotation": [
        1.9371519499600254e-07,
        -2.2351738948600541e-07,
        4.1350736523781961e-07,
        1
      ],
      "scale": [
        0.9999997615814209,
        1,
        1.0000001192092896
      ],
      "translation": [
        -10.301907539367676,
        -7.62939453125e-06,
        -20.290365219116211
      ]
    },
    {
      "name": "Box01_07",
      "rotation": [
        2.9802322387695312e-08,
        1.4901159417490817e-08,
        1.1175869119028903e-08,
        1
      ],
      "scale": [
        1.0000001192092896,
        1,
        1
      ],
      "translation": [
        7.1054273576010019e-15,
        -3.814697265625e-06,
        0.087598800659179688
      ]
    }
  ],
  "samplers": [
    {
      "magFilter": 9729,
      "minFilter": 9987,
      "wrapS": 10497,
      "wrapT": 10497
    }
  ],
  "scene": 0,
  "scenes": [
    {
      "name": "OSG_Scene",
      "nodes": [
        0
      ]
    }
  ],
  "skins": [
    {
      "inverseBindMatrices": 18,
      "joints": [
        5,
        10,
        11,
        12,
        13,
        14,
        15,
        16,
        17
      ],
      "skeleton": 5
    }
  ],
  "textures": [
    {
      "sampler": 0,
      "source": 0
    },
    {
      "sampler": 0,
      "source": 1
    },
    {
      "sampler": 0,
      "source": 2
    }
  ]
}

