{
  "accessors": [
    {
      "bufferView": 1,
      "componentType": 5126,
      "count": 147,
      "max": [
        1.2158600091934204,
        1.210610032081604,
        0.50760000944137573
      ],
      "min": [
        -1.2158600091934204,
        -1.210610032081604,
        -0.50760000944137573
      ],
      "type": "VEC3"
    },
    {
      "bufferView": 1,
      "byteOffset": 1764,
      "componentType": 5126,
      "count": 147,
      "max": [
        1,
        1,
        1
      ],
      "min": [
        -1,
        -1,
        -1
      ],
      "type": "VEC3"
    },
    {
      "bufferView": 0,
      "componentType": 5125,
      "count": 321,
      "max": [
        146
      ],
      "min": [
        0
      ],
      "type": "SCALAR"
    },
    {
      "bufferView": 1,
      "byteOffset": 3528,
      "componentType": 5126,
      "count": 24,
      "max": [
        1,
        1,
        1
      ],
      "min": [
        -1,
        -1,
        -1
      ],
      "type": "VEC3"
    },
    {
      "bufferView": 1,
      "byteOffset": 3816,
      "componentType": 5126,
      "count": 24,
      "max": [
        1,
        1,
        1
      ],
      "min": [
        -1,
        -1,
        -1
      ],
      "type": "VEC3"
    },
    {
      "bufferView": 0,
      "byteOffset": 1284,
      "componentType": 5125,
      "count": 36,
      "max": [
        23
      ],
      "min": [
        0
      ],
      "type": "SCALAR"
    },
    {
      "bufferView": 1,
      "byteOffset": 4104,
      "componentType": 5126,
      "count": 306,
      "max": [
        0.99970000982284546,
        1.6240299940109253,
        0.92558997869491577
      ],
      "min": [
        -0.99970000982284546,
        -0.98719000816345215,
        -0.93440002202987671
      ],
      "type": "VEC3"
    },
    {
      "bufferView": 1,
      "byteOffset": 7776,
      "componentType": 5126,
      "count": 306,
      "max": [
        1,
        1,
        1
      ],
      "min": [
        -1,
        -1,
        -1
      ],
      "type": "VEC3"
    },
    {
      "bufferView": 0,
      "byteOffset": 1428,
      "componentType": 5125,
      "count": 480,
      "max": [
        305
      ],
      "min": [
        0
      ],
      "type": "SCALAR"
    },
    {
      "bufferView": 1,
      "byteOffset": 11448,
      "componentType": 5126,
      "count": 152,
      "max": [
        0.91350001096725464,
        0.22832000255584717,
        1.3865000009536743
      ],
      "min": [
        -0.91350001096725464,
        -0.22832000255584717,
        -0.22832000255584717
      ],
      "type": "VEC3"
    },
    {
      "bufferView": 1,
      "byteOffset": 13272,
      "componentType": 5126,
      "count": 152,
      "max": [
        1,
        1,
        1
      ],
      "min": [
        -1,
        -1,
        -1
      ],
      "type": "VEC3"
    },
    {
      "bufferView": 0,
      "byteOffset": 3348,
      "componentType": 5125,
      "count": 348,
      "max": [
        151
      ],
      "min": [
        0
      ],
      "type": "SCALAR"
    }
  ],
  "asset": {
    "extras": {
      "author": "pedro09pm (https://sketchfab.com/pedro09pm)",
      "license": "CC-BY-4.0 (http://creativecommons.org/licenses/by/4.0/)",
      "source": "https://sketchfab.com/models/8735d39b07834382a8b4955b02ceec94",
      "title": "USB"
    },
    "generator": "Sketchfab-3.18.6",
    "version": "2.0"
  },
  "bufferViews": [
    {
      "buffer": 0,
      "byteLength": 4740,
      "byteOffset": 0,
      "name": "floatBufferViews",
      "target": 34963
    },
    {
      "buffer": 0,
      "byteLength": 15096,
      "byteOffset": 4740,
      "byteStride": 12,
      "name": "floatBufferViews",
      "target": 34962
    }
  ],
  "buffers": [
    {
      "byteLength": 19836,
      "uri": "scene.bin"
    }
  ],
  "extensionsRequired": [
    "KHR_materials_pbrSpecularGlossiness"
  ],
  "extensionsUsed": [
    "KHR_materials_pbrSpecularGlossiness"
  ],
  "materials": [
    {
      "doubleSided": true,
      "emissiveFactor": [
        0,
        0,
        0
      ],
      "extensions": {
        "KHR_materials_pbrSpecularGlossiness": {
          "diffuseFactor": [
            0.80000007149999997,
            0.3744755387,
            0.0088775307000000005,
            1
          ],
          "glossinessFactor": 0.80000000000000004,
          "specularFactor": [
            1,
            0.27119792869999998,
            0
          ]
        }
      },
      "name": "Material.001"
    },
    {
      "doubleSided": true,
      "emissiveFactor": [
        0,
        0,
        0
      ],
      "extensions": {
        "KHR_materials_pbrSpecularGlossiness": {
          "diffuseFactor": [
            0.012518225399999999,
            0.012518225399999999,
            0.012518225399999999,
            1
          ],
          "glossinessFactor": 0.76984126870000003,
          "specularFactor": [
            0.022553446356000002,
            0.022553446356000002,
            0.022553446356000002
          ]
        }
      },
      "name": "Material.005"
    },
    {
      "doubleSided": true,
      "emissiveFactor": [
        0,
        0,
        0
      ],
      "extensions": {
        "KHR_materials_pbrSpecularGlossiness": {
          "diffuseFactor": [
            0,
            0,
            0,
            1
          ],
          "glossinessFactor": 0.80000000000000004,
          "specularFactor": [
            0.012117876250000001,
            0.012117876250000001,
            0.012117876250000001
          ]
        }
      },
      "name": "Material.002"
    },
    {
      "doubleSided": true,
      "emissiveFactor": [
        0,
        0,
        0
      ],
      "extensions": {
        "KHR_materials_pbrSpecularGlossiness": {
          "diffuseFactor": [
            0.17499999999999999,
            0.17499999999999999,
            0.17499999999999999,
            1
          ],
          "glossinessFactor": 0.8730158657,
          "specularFactor": [
            1,
            1,
            1
          ]
        }
      },
      "name": "Material.004"
    }
  ],
  "meshes": [
    {
      "name": "Cube_0",
      "primitives": [
        {
          "attributes": {
            "NORMAL": 1,
            "POSITION": 0
          },
          "indices": 2,
          "material": 3,
          "mode": 4
        }
      ]
    },
    {
      "name": "Cube.001_0",
      "primitives": [
        {
          "attributes": {
            "NORMAL": 4,
            "POSITION": 3
          },
          "indices": 5,
          "material": 2,
          "mode": 4
        }
      ]
    },
    {
      "name": "Cube.002_0",
      "primitives": [
        {
          "attributes": {
            "NORMAL": 7,
            "POSITION": 6
          },
          "indices": 8,
          "material": 1,
          "mode": 4
        }
      ]
    },
    {
      "name": "Cube.003_0",
      "primitives": [
        {
          "attributes": {
            "NORMAL": 10,
            "POSITION": 9
          },
          "indices": 11,
          "material": 0,
          "mode": 4
        }
      ]
    }
  ],
  "nodes": [
    {
      "children": [
        1
      ],
      "name": "RootNode (gltf orientation matrix)",
      "rotation": [
        -0.70710678118654746,
        -0,
        -0,
        0.70710678118654757
      ]
    },
    {
      "children": [
        2
      ],
      "matrix": [
        1,
        0,
        0,
        0,
        0,
        0.99991804361343384,
        0.012802092358469963,
        0,
        0,
        -0.012802092358469963,
        0.99991804361343384,
        0,
        0,
        0.00023787240206729621,
        -0.044716425240039825,
        1
      ],
      "name": "RootNode (model correction matrix)"
    },
    {
      "children": [
        3,
        5,
        7,
        9
      ],
      "name": "Root"
    },
    {
      "children": [
        4
      ],
      "name": "Cube"
    },
    {
      "mesh": 0,
      "name": "Cube_0"
    },
    {
      "children": [
        6
      ],
      "matrix": [
        1.1680600000000001,
        0,
        0,
        0,
        0,
        1.2039699999999998,
        0,
        0,
        0,
        0,
        0.21479000000000004,
        0,
        0,
        0,
        -0.23738000000000001,
        1
      ],
      "name": "Cube.001"
    },
    {
      "mesh": 1,
      "name": "Cube.001_0"
    },
    {
      "children": [
        8
      ],
      "matrix": [
        1.5029899999999998,
        0,
        0,
        0,
        0,
        2.9525699999999997,
        0,
        0,
        0,
        0,
        0.85764000000000018,
        0,
        0,
        3.6910099999999999,
        0,
        1
      ],
      "name": "Cube.002"
    },
    {
      "mesh": 2,
      "name": "Cube.002_0"
    },
    {
      "children": [
        10
      ],
      "matrix": [
        1.1680600000000001,
        0,
        0,
        0,
        0,
        2.5986399999999996,
        0,
        0,
        0,
        0,
        0.21479000000000004,
        0,
        0,
        0,
        -0.23738000000000001,
        1
      ],
      "name": "Cube.003"
    },
    {
      "mesh": 3,
      "name": "Cube.003_0"
    }
  ],
  "scene": 0,
  "scenes": [
    {
      "name": "OSG_Scene",
      "nodes": [
        0
      ]
    }
  ]
}

